<svg xmlns="http://www.w3.org/2000/svg" xmlns:xlink="http://www.w3.org/1999/xlink" fill="none" version="1.1" width="227" height="63.4" viewBox="0 0 1135 317"><defs><clipPath id="master_svg0_152_4688"><rect x="0" y="0" width="317" height="317" rx="0"/></clipPath><clipPath id="master_svg1_152_1959"><rect x="80" y="158" width="69" height="69" rx="0"/></clipPath><clipPath id="master_svg2_152_1963"><rect x="182" y="77" width="62" height="62" rx="0"/></clipPath></defs><g style="mix-blend-mode:passthrough"><g style="mix-blend-mode:passthrough" clip-path="url(#master_svg0_152_4688)"><g style="mix-blend-mode:passthrough"><path d="M159.57192895507814,33.1402059765625C162.12792895507812,37.675725976562504,161.78192895507811,43.289625976562505,158.68692895507812,47.4762259765625C147.40392895507813,62.7406259765625,141.97492895507813,81.5475259765625,143.38692895507813,100.4765259765625C144.79792895507813,119.4057259765625,152.95692895507813,137.19962597656252,166.37892895507812,150.62162597656248C179.80092895507812,164.0436259765625,197.59492895507813,172.2026259765625,216.52392895507813,173.6146259765625C235.45292895507814,175.0246259765625,254.25992895507812,169.5966259765625,269.52392895507813,158.3126259765625C273.7109289550781,155.2186259765625,279.32392895507815,154.8716259765625,283.85992895507815,157.4276259765625C288.39592895507815,159.9846259765625,291.0059289550781,164.9656259765625,290.52792895507815,170.1496259765625C288.2189289550781,195.1316259765625,278.8439289550781,218.9386259765625,263.4979289550781,238.7866259765625C248.15292895507812,258.6336259765625,227.4719289550781,273.7006259765625,203.87592895507814,282.2236259765625C180.27992895507813,290.7466259765625,154.74492895507814,292.3726259765625,130.25892895507812,286.9126259765625C105.77212895507813,281.45362597656253,83.34702895507812,269.1326259765625,65.60722895507813,251.3926259765625C47.86752895507813,233.6526259765625,35.546778955078125,211.2276259765625,30.086858955078124,186.7406259765625C24.626948955078124,162.2546259765625,26.253635955078124,136.7196259765625,34.776588955078125,113.1239259765625C43.299528955078124,89.5281259765625,58.36622895507813,68.8476259765625,78.21362895507812,53.5023259765625C98.06112895507812,38.1570259765625,121.86852895507812,28.7814959765625,146.84992895507813,26.4728897765625C152.03392895507812,25.9938099765625,157.01592895507812,28.6046959765625,159.57192895507814,33.1402059765625C159.57192895507814,33.1402059765625,159.57192895507814,33.1402059765625,159.57192895507814,33.1402059765625ZM123.05382895507813,58.6328259765625C112.78292895507812,62.3489259765625,103.09882895507812,67.65352597656249,94.37182895507813,74.4010259765625C78.49382895507813,86.6773259765625,66.44052895507812,103.2216259765625,59.622128955078125,122.0983259765625C52.80372895507813,140.9746259765625,51.50242895507812,161.4036259765625,55.87032895507812,180.9926259765625C60.238328955078124,200.5816259765625,70.09492895507813,218.5216259765625,84.28672895507813,232.7136259765625C98.47852895507812,246.9046259765625,116.41862895507812,256.7616259765625,136.0079289550781,261.12962597656247C155.5969289550781,265.4976259765625,176.02592895507811,264.1956259765625,194.90192895507812,257.3776259765625C213.77792895507812,250.5596259765625,230.3229289550781,238.5066259765625,242.59892895507812,222.6276259765625C249.3469289550781,213.9006259765625,254.65092895507811,204.2166259765625,258.3679289550781,193.9456259765625C244.45692895507813,198.9786259765625,229.53692895507814,201.0746259765625,214.55892895507813,199.9566259765625C189.31992895507813,198.0746259765625,165.59492895507813,187.1966259765625,147.69892895507815,169.3006259765625C129.80292895507813,151.4046259765625,118.92502895507812,127.6796259765625,117.04292895507812,102.4411259765625C115.92592895507812,87.4633259765625,118.02132895507812,72.54272597656251,123.05382895507813,58.6328259765625C123.05382895507813,58.6328259765625,123.05382895507813,58.6328259765625,123.05382895507813,58.6328259765625Z" fill-rule="evenodd" fill="#FFFFFF" fill-opacity="1"/></g></g><g clip-path="url(#master_svg1_152_1959)"><g><path d="M122.7973302734375,163.75L110.0381302734375,185.8472C121.9395302734375,182.9182,133.3910302734375,192.0464,133.1890302734375,204.3013C132.98703027343748,216.5562,121.2408302734375,225.302,109.4424302734375,221.9822C97.6439602734375,218.6624,92.1819402734375,205.0746,98.4000902734375,194.5125L116.1561302734375,163.75L122.7973302734375,163.75ZM114.50013027343749,191.0625C107.3549302734375,191.0625,101.56259027343751,196.8548,101.56259027343751,204C101.56259027343751,211.1452,107.3549302734375,216.9375,114.50013027343749,216.9375C121.6452302734375,216.9375,127.43763027343749,211.1452,127.43763027343749,204C127.43763027343749,196.8548,121.6452302734375,191.0625,114.50013027343749,191.0625Z" fill="#FFFFFF" fill-opacity="1"/></g></g><g clip-path="url(#master_svg2_152_1963)"><g><path d="M244,108L229.3861,122.6139L225.7332,118.9611L236.6943,108L225.7332,97.0389L229.3861,93.38607999999999L244,108ZM189.30567,108L200.2668,118.9611L196.6139,122.6139L182,108L196.6139,93.38607999999999L200.2642,97.0389L189.30567,108ZM207.2857,131.25L201.7883,131.25L218.7143,84.75L224.2117,84.75L207.2857,131.25Z" fill="#FFFFFF" fill-opacity="1"/></g></g><g style="mix-blend-mode:passthrough"><path d="M374.5469,165.5469L374.5469,148L415,148L415,191.594Q410.1094,199.562,399.3594,204.281Q388.6094,209,375.6406,209Q360.2031,209,348.2344,202.031Q336.2656,195.047,329.625,182.562Q323,170.0625,323,153.9219Q323,137.6562,329.8438,125.1719Q336.7031,112.6719,348.6562,105.8438Q360.625,99,375.2031,99Q389.7656,99,400.5,105.5625Q411.25,112.1094,415,122.3438L397.4844,132.3438Q394.3281,125.6719,388.4688,121.8438Q382.6094,118,374.5938,118Q366.1719,118,359.4375,122.375Q352.7188,126.75,348.8594,134.9219Q345,143.0781,345,153.8438Q345,164.9375,348.9219,173.094Q352.8594,181.25,360.0625,185.625Q367.2656,190,376.8438,190Q387.9844,190,394.2656,183.51600000000002L394.2656,165.5469L374.5469,165.5469ZM478,132L498,132L498,207L480.01599999999996,207Q480.01599999999996,198.594,479.156,195.656Q475.453,202.391,469.438,205.703Q463.438,209,455.73400000000004,209Q443.297,209,436.141,200.875Q429,192.73399999999998,429,177.047L429,132L449,132L449,170.5625Q449,191.453,462.078,191.453Q469.188,191.453,473.594,185.76600000000002Q478,180.062,478,169.8281L478,132ZM557,144.5L580.844,101L603.453,101L566.734,165.2969L566.734,207L546,207L546,165.1562L507.688,101L532.312,101L557,144.5ZM661,132L681,132L681,207L663.0160000000001,207Q663.0160000000001,198.594,662.156,195.656Q658.453,202.391,652.438,205.703Q646.438,209,638.7339999999999,209Q626.297,209,619.1410000000001,200.875Q612,192.73399999999998,612,177.047L612,132L632,132L632,170.5625Q632,191.453,645.078,191.453Q652.188,191.453,656.594,185.76600000000002Q661,180.062,661,169.8281L661,132ZM732.297,130Q742.203,130,749.875,134.4375Q757.547,138.875,761.7660000000001,146.9688Q766,155.0469,766,165.5312Q766,170.2031,765.1410000000001,175L715.797,175Q717.094,183.156,721.812,187.312Q726.547,191.453,733.594,191.453Q738.594,191.453,742.547,189.281Q746.5,187.094,748.6410000000001,182.73399999999998L763.281,191.172Q760.281,199.719,751.7339999999999,204.359Q743.203,209,732.719,209Q722.688,209,714.078,204.5Q705.469,199.98399999999998,700.2339999999999,190.969Q695,181.938,695,169.2812Q695,156.7812,700.219,147.9062Q705.453,139.0312,713.922,134.5156Q722.3910000000001,130,732.297,130ZM731.719,146Q725.828,146,721.672,149.9531Q717.5160000000001,153.8906,716.078,161L745.625,161Q745.047,153.7188,741.2339999999999,149.8594Q737.438,146,731.719,146ZM810,101L895,101L895,120L862.734,120L862.734,207.5L842,207.5L842,120L810,120L810,101ZM938.297,130Q948.203,130,955.875,134.4375Q963.547,138.875,967.766,146.9688Q972,155.0469,972,165.5312Q972,170.2031,971.141,175L921.797,175Q923.094,183.156,927.812,187.312Q932.547,191.453,939.594,191.453Q944.594,191.453,948.547,189.281Q952.5,187.094,954.641,182.73399999999998L969.281,191.172Q966.281,199.719,957.734,204.359Q949.203,209,938.719,209Q928.688,209,920.078,204.5Q911.469,199.98399999999998,906.234,190.969Q901,181.938,901,169.2812Q901,156.7812,906.219,147.9062Q911.453,139.0312,919.922,134.5156Q928.391,130,938.297,130ZM937.719,146Q931.828,146,927.672,149.9531Q923.516,153.8906,922.078,161L951.625,161Q951.047,153.7188,947.234,149.8594Q943.438,146,937.719,146ZM1018.859,191.453Q1027.5,191.453,1032.688,182.906L1047.953,191.89100000000002Q1044.359,200.312,1036.578,204.656Q1028.797,209,1018.859,209Q1008.922,209,1000.281,204.453Q991.656,199.89100000000002,986.328,191Q981,182.094,981,169.7969Q981,157.3594,986.328,148.4688Q991.656,139.5781,1000.281,135.0156Q1008.922,130.4531,1018.859,130.4531Q1028.797,130.4531,1036.578,134.7656Q1044.359,139.0781,1047.953,147.4219L1032.688,156.4062Q1027.656,148,1018.859,148Q1011.094,148,1006.406,153.875Q1001.734,159.7344,1001.734,169.7344Q1001.734,179.594,1006.484,185.531Q1011.234,191.453,1018.859,191.453ZM1099.969,130Q1112.328,130,1119.656,138.2031Q1127,146.3906,1127,162.0469L1127,207L1107,207L1107,168.2969Q1107,147.5469,1093.25,147.5469Q1085.922,147.5469,1081.453,153.1719Q1077,158.7969,1077,169.0156L1077,207L1057,207L1057,97L1077,97L1077,141.6094Q1084.266,130,1099.969,130Z" fill="#FFFFFF" fill-opacity="1"/></g></g></svg>