<svg xmlns="http://www.w3.org/2000/svg" xmlns:xlink="http://www.w3.org/1999/xlink"
        fill="none" version="1.1" width="1088" height="376.5" viewBox="0 0 2176 753.0000610351562">
        <g style="mix-blend-mode:passthrough">
          <g>
            <g>
              <g>
                <path d="" fill="#FFB3B3" fill-opacity="0" />
              </g>
            </g>
            <g>
              <path
                d="M351.6589660644531,564.7501098632813L370.6603660644531,564.7501098632813C382.7925660644531,564.7451098632812,393.4450660644531,555.8111098632812,396.35366606445314,543.2021098632813L460.8879660644531,263.55010986328125L421.17906606445314,263.55010986328125L351.6589660644531,564.7501098632813Z"
                fill="#78E11B" fill-opacity="1" />
            </g>
            <g
              transform="matrix(-0.20791159570217133,0.9781475067138672,0.9781475067138672,0.20791159570217133,-0.16294229019968043,0.1320337246870622)">
              <path
                d="M374.79510498046875,752.066L393.03100498046877,752.066C404.6745049804687,752.0609999999999,414.8978049804688,743.4870000000001,417.68920498046873,731.386L479.62410498046876,463L441.51450498046876,463L374.79510498046875,752.066Z"
                fill="#78E11B" fill-opacity="1" />
            </g>
            <g>
              <path
                d="M292.08160400390625,564.7501098632813L331.7907040039062,564.7501098632813L401.31060400390623,263.55010986328125L382.33870400390623,263.55010986328125C370.20890400390624,263.5524078332812,359.5566040039063,272.48233986328125,356.6456040039062,285.08900986328126L292.08160400390625,564.7501098632813Z"
                fill="#B0B0B0" fill-opacity="1" />
            </g>
            <g
              transform="matrix(0.9659258127212524,-0.258819043636322,0.258819043636322,0.9659258127212524,-54.9271419745819,133.88100205106457)">
              <path
                d="M522.6051,491.30705810546874L525.6143,306.49345810546873C522.7027,288.36015810546877,512.1078,275.5711624054687,499.9755,275.54705810546875L481,275.54705810546875L482.69015,498.04405810546876L522.6051,491.30705810546874Z"
                fill="#B0B0B0" fill-opacity="1" />
            </g>
            <g>
              <path
                d="M188.25003051757812,422.0552062988281L217.60523051757812,544.1142062988281C220.52693051757814,556.2342062988281,231.17133051757813,564.7682062988281,243.34253051757813,564.7502062988281L262.3073305175781,564.7502062988281L227.95903051757813,422.1609132988281L188.25003051757812,422.0552062988281Z"
                fill="#B0B0B0" fill-opacity="1" />
            </g>
            <g>
              <path
                d="M475.77262978515625,284.20428466796875L455.91802978515625,366.70158466796875L460.49117978515625,385.57228466796874C463.40697978515624,397.68028466796875,474.0200297851562,406.2152846679687,486.1697297851563,406.22428466796873L505.18572978515624,406.22428466796873L475.77262978515625,284.20428466796875Z"
                fill="#B0B0B0" fill-opacity="1" />
            </g>
            <g>
              <path
                d="M297.08172233886717,461.58038603515627L292.54502233886717,442.72318603515623C289.62632233886717,430.60137603515625,278.9817223388672,422.06210023515627,266.80772233886717,422.07818603515625L247.8135223388672,422.07818603515625L277.1835223388672,544.1141860351563L297.08172233886717,461.58038603515627Z"
                fill="#78E11B" fill-opacity="1" />
            </g>
          </g>
          <g style="mix-blend-mode:passthrough">
            <path
              d="M719,448.89106103515627Q719,460.64106103515627,712.8438,468.0470610351563Q706.6875,475.4530610351562,697.4375,478.7340610351563Q688.1875,482.00006103515625,678.4844,482.00006103515625Q663.875,482.00006103515625,651.7188,475.31206103515626Q639.57812,468.60906103515623,635.53125,455.9220610351563L655.1094,444.40626103515626Q658.3125,451.8280610351562,664.4688,455.9220610351563Q670.6406,460.00006103515625,679.0781,460.00006103515625Q685.3125,460.00006103515625,689.1562,457.60906103515623Q693,455.21906103515624,693,450.56206103515626Q693,446.78106103515626,690.4062,444.31256103515625Q687.8125,441.84386103515624,683.9219,440.25006103515625Q680.0469,438.65626103515626,672.9844,436.62506103515625Q662.6094,433.57816103515626,656.0469,430.53126103515626Q649.5,427.46886103515624,644.75,421.29696103515624Q640,415.12506103515625,640,405.10946103515624Q640,394.07816103515626,645.7188,386.67196103515624Q651.4375,379.26566103515626,660.6094,375.64066103515626Q669.7969,372.00006103515625,680.3594,372.00006103515625Q694.2656,372.00006103515625,704.6719,378.34386103515624Q715.0938,384.67196103515624,718.125,396.32816103515626L697.6719,407.84386103515624Q695.3281,401.28126103515626,690.4219,397.64066103515626Q685.5156,394.00006103515625,678.4844,394.00006103515625Q672.4688,394.00006103515625,668.7344,396.76566103515626Q665,399.53126103515626,665,403.87506103515625Q665,407.20316103515626,667.5625,409.53126103515626Q670.125,411.85946103515624,673.9219,413.31256103515625Q677.7344,414.76566103515626,684.75,416.93756103515625Q695.5781,420.12506103515625,702.3125,423.25006103515625Q709.0469,426.37506103515625,714.0156,432.62506103515625Q719,438.85946103515624,719,448.89106103515627ZM782.188,404.50006103515625L806.953,404.50006103515625L773.984,487.8590610351563Q768.375,502.2340610351563,760.453,508.6090610351563Q752.531,515.0000610351562,741.297,515.0000610351562Q735.531,515.0000610351562,730.4844,513.3750610351562Q725.4531,511.7660610351562,722,508.93806103515624L731.0781,491.4840610351563Q735.969,494.84406103515624,741.016,494.84406103515624Q745.609,494.84406103515624,748.484,492.1410610351562Q751.375,489.43806103515624,754.969,481.68806103515624L722.1406,404.50006103515625L748.203,404.50006103515625L766.203,452.59406103515624L782.188,404.50006103515625ZM860.203,403.00006103515625Q872.812,403.00006103515625,879.906,411.26566103515626Q887,419.53126103515626,887,435.62506103515625L887,480.00006103515625L864,480.00006103515625L864,443.23446103515624Q864,433.71886103515624,861.156,428.43756103515625Q858.328,423.15626103515626,851.781,423.15626103515626Q845.266,423.15626103515626,841.625,428.73446103515624Q838,434.29696103515624,838,444.26566103515626L838,480.00006103515625L815,480.00006103515625L815,405.00006103515625L835.594,405.00006103515625Q835.594,412.03126103515626,836.719,416.26566103515626Q843.891,403.00006103515625,860.203,403.00006103515625ZM960.438,474.7970610351563Q952.375,482.00006103515625,937.7660000000001,482.00006103515625Q924.7339999999999,482.00006103515625,916.8589999999999,475.12506103515625Q909,468.25006103515625,909,450.75006103515625L909,425.15626103515626L895,425.15626103515626L895,405.00006103515625L909,405.00006103515625L909,381.00006103515625L932,381.00006103515625L932,405.00006103515625L955,405.00006103515625L955,425.15626103515626L932,425.15626103515626L932,446.62506103515625Q932,453.87506103515625,934.172,457.85906103515623Q936.3589999999999,461.84406103515624,942.469,461.84406103515624Q947.438,461.84406103515624,952.2339999999999,458.51606103515627L960.438,474.7970610351563ZM1012.203,403.00006103515625Q1024.812,403.00006103515625,1031.906,411.26566103515626Q1039,419.53126103515626,1039,435.62506103515625L1039,480.00006103515625L1016,480.00006103515625L1016,443.23446103515624Q1016,433.71886103515624,1013.156,428.43756103515625Q1010.328,423.15626103515626,1003.781,423.15626103515626Q997.2660000000001,423.15626103515626,993.625,428.73446103515624Q990,434.29696103515624,990,444.26566103515626L990,480.00006103515625L967,480.00006103515625L967,370.00006103515625L990,370.00006103515625L990,414.00006103515625Q997.172,403.00006103515625,1012.203,403.00006103515625ZM1088.438,403.00006103515625Q1098.656,403.00006103515625,1106.5,407.40626103515626Q1114.359,411.79696103515624,1118.672,420.01566103515626Q1123,428.23446103515624,1123,439.20316103515626Q1123,443.81256103515625,1122.141,449.00006103515625L1074.484,449.00006103515625Q1076.078,455.14106103515627,1079.953,458.50006103515625Q1083.844,461.84406103515624,1089.453,461.84406103515624Q1094.062,461.84406103515624,1097.734,459.7030610351562Q1101.406,457.56206103515626,1103.125,453.4220610351563L1120.266,463.64106103515627Q1117.094,472.4530610351562,1108.312,477.2340610351563Q1099.531,482.00006103515625,1088.578,482.00006103515625Q1078.516,482.00006103515625,1069.656,477.50006103515625Q1060.812,472.98406103515623,1055.406,464.00006103515625Q1050,455.00006103515625,1050,442.20316103515626Q1050,429.57816103515626,1055.406,420.71886103515624Q1060.812,411.85946103515624,1069.594,407.43756103515625Q1078.375,403.00006103515625,1088.438,403.00006103515625ZM1087.734,422.00006103515625Q1082.844,422.00006103515625,1079.453,424.89066103515626Q1076.078,427.78126103515626,1074.484,433.00006103515625L1099.25,433.00006103515625Q1098.672,427.64066103515626,1095.5,424.82816103515626Q1092.344,422.00006103515625,1087.734,422.00006103515625ZM1193.188,457.50006103515625Q1193.188,469.09406103515624,1184.172,475.5470610351563Q1175.156,482.00006103515625,1161.016,482.00006103515625Q1148.906,482.00006103515625,1139.953,476.7340610351563Q1131,471.46906103515624,1127.688,462.28106103515626L1144.766,452.31206103515626Q1146.625,457.35906103515623,1151,460.18806103515624Q1155.375,463.00006103515625,1161.109,463.00006103515625Q1164.703,463.00006103515625,1166.844,461.76606103515627Q1169,460.53106103515626,1169,458.21906103515624Q1169,455.46906103515624,1165.906,453.87506103515625Q1162.812,452.28106103515626,1155.75,450.09406103515624Q1148.141,447.93806103515624,1143.172,445.76566103515626Q1138.203,443.59386103515624,1134.594,439.31256103515625Q1131,435.03126103515626,1131,428.21886103515624Q1131,420.39066103515626,1135.328,414.67196103515624Q1139.656,408.95316103515626,1146.875,405.98446103515624Q1154.094,403.00006103515625,1162.594,403.00006103515625Q1174.438,403.00006103515625,1182.516,408.12506103515625Q1190.594,413.23446103515624,1192.75,421.56256103515625L1175.656,431.09386103515624Q1171.516,422.00006103515625,1162.484,422.00006103515625Q1159.047,422.00006103515625,1157.109,423.37506103515625Q1155.188,424.75006103515625,1155.188,426.92196103515624Q1155.188,429.68756103515625,1158.141,431.14066103515626Q1161.094,432.57816103515626,1167.859,434.60946103515624Q1175.328,436.64066103515626,1180.516,438.95316103515626Q1185.703,441.26566103515626,1189.438,445.76566103515626Q1193.188,450.25006103515625,1193.188,457.50006103515625ZM1214.5,397.50006103515625Q1208.953,397.50006103515625,1204.969,393.37506103515625Q1201,389.23446103515624,1201,383.56256103515625Q1201,377.76566103515626,1204.906,373.64066103515626Q1208.812,369.50006103515625,1214.5,369.50006103515625Q1219.891,369.50006103515625,1223.938,373.70316103515626Q1228,377.90626103515626,1228,383.56256103515625Q1228,389.23446103515624,1224.016,393.37506103515625Q1220.047,397.50006103515625,1214.5,397.50006103515625ZM1226,480.00006103515625L1203,480.00006103515625L1203,405.00006103515625L1226,405.00006103515625L1226,480.00006103515625ZM1299,405.00006103515625L1299,419.25006103515625L1267.766,461.00006103515625L1302,461.00006103515625L1302,480.00006103515625L1238,480.00006103515625L1238,465.4530610351562L1268.922,424.00006103515625L1240,424.00006103515625L1240,405.00006103515625L1299,405.00006103515625ZM1347.438,403.00006103515625Q1357.656,403.00006103515625,1365.5,407.40626103515626Q1373.359,411.79696103515624,1377.672,420.01566103515626Q1382,428.23446103515624,1382,439.20316103515626Q1382,443.81256103515625,1381.141,449.00006103515625L1333.484,449.00006103515625Q1335.078,455.14106103515627,1338.953,458.50006103515625Q1342.844,461.84406103515624,1348.453,461.84406103515624Q1353.062,461.84406103515624,1356.734,459.7030610351562Q1360.406,457.56206103515626,1362.125,453.4220610351563L1379.266,463.64106103515627Q1376.094,472.4530610351562,1367.312,477.2340610351563Q1358.531,482.00006103515625,1347.578,482.00006103515625Q1337.516,482.00006103515625,1328.656,477.50006103515625Q1319.812,472.98406103515623,1314.406,464.00006103515625Q1309,455.00006103515625,1309,442.20316103515626Q1309,429.57816103515626,1314.406,420.71886103515624Q1319.812,411.85946103515624,1328.594,407.43756103515625Q1337.375,403.00006103515625,1347.438,403.00006103515625ZM1346.734,422.00006103515625Q1341.844,422.00006103515625,1338.453,424.89066103515626Q1335.078,427.78126103515626,1333.484,433.00006103515625L1358.25,433.00006103515625Q1357.672,427.64066103515626,1354.5,424.82816103515626Q1351.344,422.00006103515625,1346.734,422.00006103515625ZM1437.016,403.00006103515625Q1441.625,403.00006103515625,1445.719,404.45316103515626Q1449.828,405.89066103515626,1451.844,408.20316103515626L1442.781,426.20316103515626Q1438.172,423.15626103515626,1433.562,423.15626103515626Q1425.922,423.15626103515626,1421.453,429.54696103515624Q1417,435.92196103515624,1417,446.7970610351563L1417,480.00006103515625L1394,480.00006103515625L1394,405.00006103515625L1414.594,405.00006103515625Q1414.594,412.12506103515625,1415.719,416.62506103515625Q1419.031,409.95316103515626,1424.578,406.48446103515624Q1430.125,403.00006103515625,1437.016,403.00006103515625ZM1518.938,374.00006103515625L1544.719,444.95316103515626L1569.484,374.00006103515625L1596.125,374.00006103515625L1554.516,480.00006103515625L1533.625,480.00006103515625L1490.859,374.00006103515625L1518.938,374.00006103515625ZM1684.39,374.00006103515625Q1697.72,374.00006103515625,1707.56,378.43756103515625Q1717.42,382.85946103515624,1722.7,390.98446103515624Q1728,399.10946103515624,1728,410.00006103515625Q1728,420.87506103515625,1722.66,429.01566103515626Q1717.31,437.14066103515626,1707.36,441.57816103515626Q1697.42,446.00006103515625,1683.95,446.00006103515625L1670.19,446.00006103515625L1670.19,480.00006103515625L1646,480.00006103515625L1646,374.00006103515625L1684.39,374.00006103515625ZM1681.3,425.00006103515625Q1690.45,425.00006103515625,1696.22,421.54696103515624Q1702,418.07816103515626,1702,409.98446103515624Q1702,402.06256103515625,1696.16,398.53126103515626Q1690.31,395.00006103515625,1681.3,395.00006103515625L1670.19,395.00006103515625L1670.19,425.00006103515625L1681.3,425.00006103515625ZM1735,442.48446103515624Q1735,430.59386103515624,1740.39,421.59386103515624Q1745.8,412.59386103515624,1754.84,407.79696103515624Q1763.89,403.00006103515625,1774.23,403.00006103515625Q1784.59,403.00006103515625,1793.56,407.79696103515624Q1802.55,412.59386103515624,1807.86,421.59386103515624Q1813.19,430.59386103515624,1813.19,442.48446103515624Q1813.19,454.56206103515626,1807.86,463.48406103515623Q1802.55,472.40606103515626,1793.64,477.2030610351562Q1784.73,482.00006103515625,1774.23,482.00006103515625Q1763.75,482.00006103515625,1754.77,477.2030610351562Q1745.8,472.40606103515626,1740.39,463.48406103515623Q1735,454.56206103515626,1735,442.48446103515624ZM1759.19,442.57816103515626Q1759.19,451.48406103515623,1763.44,456.6720610351563Q1767.69,461.84406103515624,1774.16,461.84406103515624Q1780.52,461.84406103515624,1784.75,456.6720610351563Q1789,451.48406103515623,1789,442.57816103515626Q1789,433.67196103515624,1784.75,428.42196103515624Q1780.52,423.15626103515626,1774.16,423.15626103515626Q1767.69,423.15626103515626,1763.44,428.42196103515624Q1759.19,433.67196103515624,1759.19,442.57816103515626ZM1869.02,403.00006103515625Q1873.62,403.00006103515625,1877.72,404.45316103515626Q1881.83,405.89066103515626,1883.84,408.20316103515626L1874.78,426.20316103515626Q1870.17,423.15626103515626,1865.56,423.15626103515626Q1857.92,423.15626103515626,1853.45,429.54696103515624Q1849,435.92196103515624,1849,446.7970610351563L1849,480.00006103515625L1826,480.00006103515625L1826,405.00006103515625L1846.59,405.00006103515625Q1846.59,412.12506103515625,1847.72,416.62506103515625Q1851.03,409.95316103515626,1856.58,406.48446103515624Q1862.12,403.00006103515625,1869.02,403.00006103515625Z"
              fill="#FFFFFF" fill-opacity="1" />
          </g>
        </g>
      </svg>